<svg xmlns="http://www.w3.org/2000/svg" xmlns:xlink="http://www.w3.org/1999/xlink" width="176" zoomAndPan="magnify" viewBox="0 0 132 30.000001" height="40" preserveAspectRatio="xMidYMid meet" version="1.0"><defs><clipPath id="74bca9c3b3"><path d="M 2.132812 9.671875 L 17.347656 9.671875 L 17.347656 28.441406 L 2.132812 28.441406 Z M 2.132812 9.671875 " clip-rule="nonzero"/></clipPath><clipPath id="dbc17e1bf9"><path d="M 8.453125 9.761719 C 8.171875 9.746094 7.886719 9.738281 7.589844 9.738281 L 2.152344 9.753906 L 2.152344 13.460938 L 7.582031 13.460938 C 11.285156 13.460938 13.539062 15.597656 13.539062 19.101562 C 13.539062 22.578125 11.296875 24.691406 7.617188 24.691406 L 2.152344 24.691406 L 2.152344 28.4375 L 7.589844 28.4375 C 13.632812 28.4375 17.320312 24.914062 17.320312 19.113281 C 17.320312 13.566406 13.980469 10.078125 8.453125 9.769531 " clip-rule="nonzero"/></clipPath><clipPath id="fc2d7a6ea8"><path d="M 0.132812 0.671875 L 15.347656 0.671875 L 15.347656 19.441406 L 0.132812 19.441406 Z M 0.132812 0.671875 " clip-rule="nonzero"/></clipPath><clipPath id="344a61a26c"><path d="M 6.453125 0.761719 C 6.171875 0.746094 5.886719 0.738281 5.589844 0.738281 L 0.152344 0.753906 L 0.152344 4.460938 L 5.582031 4.460938 C 9.285156 4.460938 11.539062 6.597656 11.539062 10.101562 C 11.539062 13.578125 9.296875 15.691406 5.617188 15.691406 L 0.152344 15.691406 L 0.152344 19.4375 L 5.589844 19.4375 C 11.632812 19.4375 15.320312 15.914062 15.320312 10.113281 C 15.320312 4.566406 11.980469 1.078125 6.453125 0.769531 " clip-rule="nonzero"/></clipPath><clipPath id="08032ddbf9"><rect x="0" width="16" y="0" height="20"/></clipPath><clipPath id="95392c29a4"><path d="M 2.132812 0.00390625 L 17.488281 0.00390625 L 17.488281 8.535156 L 2.132812 8.535156 Z M 2.132812 0.00390625 " clip-rule="nonzero"/></clipPath><clipPath id="03971af2ba"><path d="M 12.664062 0.0585938 C 6.769531 0.0429688 2.949219 3.167969 2.261719 8.410156 L 6.445312 8.410156 C 7.09375 5.683594 9.339844 4.078125 12.671875 4.078125 L 17.371094 4.078125 L 17.371094 0.0664062 Z M 12.664062 0.0585938 " clip-rule="nonzero"/></clipPath><clipPath id="4e3cddb8b9"><path d="M 0.132812 0.00390625 L 15.457031 0.00390625 L 15.457031 8.535156 L 0.132812 8.535156 Z M 0.132812 0.00390625 " clip-rule="nonzero"/></clipPath><clipPath id="b3defc3b9b"><path d="M 10.664062 0.0585938 C 4.769531 0.0429688 0.949219 3.167969 0.261719 8.410156 L 4.445312 8.410156 C 5.09375 5.683594 7.339844 4.078125 10.671875 4.078125 L 15.371094 4.078125 L 15.371094 0.0664062 Z M 10.664062 0.0585938 " clip-rule="nonzero"/></clipPath><clipPath id="d8087f87ff"><rect x="0" width="16" y="0" height="9"/></clipPath><clipPath id="6b80284dd2"><path d="M 2.128906 16.355469 L 6.964844 16.355469 L 6.964844 21.332031 L 2.128906 21.332031 Z M 2.128906 16.355469 " clip-rule="nonzero"/></clipPath><clipPath id="3fe6ef78bd"><path d="M 6.917969 18.804688 C 6.917969 20.125 5.84375 21.199219 4.523438 21.199219 C 3.199219 21.199219 2.128906 20.125 2.128906 18.804688 C 2.128906 17.480469 3.199219 16.410156 4.523438 16.410156 C 5.84375 16.410156 6.917969 17.480469 6.917969 18.804688 " clip-rule="nonzero"/></clipPath><clipPath id="468ca6c49e"><path d="M 0.128906 0.355469 L 4.964844 0.355469 L 4.964844 5.332031 L 0.128906 5.332031 Z M 0.128906 0.355469 " clip-rule="nonzero"/></clipPath><clipPath id="27b16adac3"><path d="M 4.917969 2.804688 C 4.917969 4.125 3.84375 5.199219 2.523438 5.199219 C 1.199219 5.199219 0.128906 4.125 0.128906 2.804688 C 0.128906 1.480469 1.199219 0.410156 2.523438 0.410156 C 3.84375 0.410156 4.917969 1.480469 4.917969 2.804688 " clip-rule="nonzero"/></clipPath><clipPath id="c91a780d49"><rect x="0" width="5" y="0" height="6"/></clipPath><clipPath id="f5e3595bc5"><path d="M 19.054688 0.00390625 L 60.71875 0.00390625 L 60.71875 29.03125 L 19.054688 29.03125 Z M 19.054688 0.00390625 " clip-rule="nonzero"/></clipPath><clipPath id="726b48d7c8"><path d="M 49.03125 24.890625 C 44.933594 24.890625 41.902344 21.945312 41.902344 18.019531 C 41.902344 14.097656 44.933594 11.148438 49.03125 11.148438 C 53.132812 11.148438 56.132812 14.074219 56.132812 18.019531 C 56.132812 21.964844 53.132812 24.890625 49.03125 24.890625 M 56.644531 10.175781 C 54.671875 8.222656 51.890625 7.054688 48.683594 7.054688 C 44.117188 7.054688 40.371094 9.375 38.546875 12.9375 C 37.585938 9.28125 34.742188 7.085938 30.664062 7.085938 C 27.753906 7.085938 25.269531 8.148438 23.601562 9.9375 L 23.601562 0.0664062 L 19.121094 0.0664062 L 19.121094 28.503906 L 23.59375 28.503906 L 23.59375 17.296875 C 23.59375 13.585938 26.054688 10.957031 29.4375 10.957031 C 32.746094 10.957031 34.433594 12.988281 34.433594 16.78125 L 34.433594 28.503906 L 38.910156 28.503906 L 38.910156 23.761719 C 40.839844 26.960938 44.40625 29.015625 48.683594 29.015625 C 51.855469 29.015625 54.605469 27.871094 56.578125 25.949219 L 57.011719 28.5 L 60.617188 28.5 L 60.617188 15.804688 L 57.117188 7.808594 Z M 56.644531 10.175781 " clip-rule="nonzero"/></clipPath><clipPath id="1d61a457f3"><path d="M 0.0820312 0.00390625 L 41.65625 0.00390625 L 41.65625 29.03125 L 0.0820312 29.03125 Z M 0.0820312 0.00390625 " clip-rule="nonzero"/></clipPath><clipPath id="fc1ca69952"><path d="M 30.03125 24.890625 C 25.933594 24.890625 22.902344 21.945312 22.902344 18.019531 C 22.902344 14.097656 25.933594 11.148438 30.03125 11.148438 C 34.132812 11.148438 37.132812 14.074219 37.132812 18.019531 C 37.132812 21.964844 34.132812 24.890625 30.03125 24.890625 M 37.644531 10.175781 C 35.671875 8.222656 32.890625 7.054688 29.683594 7.054688 C 25.117188 7.054688 21.371094 9.375 19.546875 12.9375 C 18.585938 9.28125 15.742188 7.085938 11.664062 7.085938 C 8.753906 7.085938 6.269531 8.148438 4.601562 9.9375 L 4.601562 0.0664062 L 0.121094 0.0664062 L 0.121094 28.503906 L 4.59375 28.503906 L 4.59375 17.296875 C 4.59375 13.585938 7.054688 10.957031 10.4375 10.957031 C 13.746094 10.957031 15.433594 12.988281 15.433594 16.78125 L 15.433594 28.503906 L 19.910156 28.503906 L 19.910156 23.761719 C 21.839844 26.960938 25.40625 29.015625 29.683594 29.015625 C 32.855469 29.015625 35.605469 27.871094 37.578125 25.949219 L 38.011719 28.5 L 41.617188 28.5 L 41.617188 15.804688 L 38.117188 7.808594 Z M 37.644531 10.175781 " clip-rule="nonzero"/></clipPath><clipPath id="f6d72dabaf"><rect x="0" width="42" y="0" height="30"/></clipPath><clipPath id="42de260f0b"><path d="M 58.160156 7 L 129.871094 7 L 129.871094 29.03125 L 58.160156 29.03125 Z M 58.160156 7 " clip-rule="nonzero"/></clipPath><clipPath id="f372ca92f7"><path d="M 118.847656 11.253906 L 118.847656 14.992188 C 118.457031 13.601562 117.800781 12.339844 116.925781 11.253906 Z M 107.625 11.164062 C 111.746094 11.164062 114.703125 14.023438 114.703125 18.035156 C 114.703125 22.046875 111.742188 24.90625 107.625 24.90625 C 103.507812 24.90625 100.546875 22.046875 100.546875 18.035156 C 100.546875 14.023438 103.507812 11.164062 107.625 11.164062 Z M 107.625 7.054688 C 103.242188 7.054688 99.59375 9.066406 97.613281 12.242188 L 97.613281 7.574219 L 93.136719 7.574219 L 93.136719 19.0625 C 93.136719 22.660156 91.109375 24.90625 87.726562 24.90625 C 84.367188 24.90625 82.304688 22.699219 82.304688 19.0625 L 82.304688 7.574219 L 75.859375 7.574219 L 69.460938 23.097656 L 62.945312 7.574219 L 58.222656 7.574219 L 67.402344 28.503906 L 71.507812 28.503906 L 77.828125 13.726562 L 77.828125 19.667969 C 77.828125 25.285156 81.726562 29 87.683594 29.015625 L 87.769531 29.015625 C 90.128906 29.007812 92.152344 28.425781 93.742188 27.382812 C 95.34375 26.332031 96.503906 24.8125 97.117188 22.925781 C 98.941406 26.59375 102.835938 29 107.582031 29.015625 L 107.667969 29.015625 C 110.410156 29.007812 112.871094 28.195312 114.808594 26.804688 C 116.757812 25.410156 118.183594 23.421875 118.839844 21.074219 C 118.847656 25.683594 121.789062 28.503906 126.546875 28.503906 L 129.871094 28.503906 L 129.871094 24.597656 L 127.390625 24.597656 C 124.75 24.597656 123.3125 23.207031 123.3125 20.710938 L 123.3125 11.253906 L 129.753906 11.253906 L 129.753906 7.574219 L 117.738281 7.574219 L 115.53125 9.828125 C 113.484375 8.082031 110.734375 7.054688 107.617188 7.054688 Z M 107.625 7.054688 " clip-rule="nonzero"/></clipPath><clipPath id="133d43655e"><path d="M 0.160156 0 L 71.871094 0 L 71.871094 22.03125 L 0.160156 22.03125 Z M 0.160156 0 " clip-rule="nonzero"/></clipPath><clipPath id="0380bda8fa"><path d="M 60.847656 4.253906 L 60.847656 7.992188 C 60.457031 6.601562 59.800781 5.339844 58.925781 4.253906 Z M 49.625 4.164062 C 53.746094 4.164062 56.703125 7.023438 56.703125 11.035156 C 56.703125 15.046875 53.742188 17.90625 49.625 17.90625 C 45.507812 17.90625 42.546875 15.046875 42.546875 11.035156 C 42.546875 7.023438 45.507812 4.164062 49.625 4.164062 Z M 49.625 0.0546875 C 45.242188 0.0546875 41.59375 2.066406 39.613281 5.242188 L 39.613281 0.574219 L 35.136719 0.574219 L 35.136719 12.0625 C 35.136719 15.660156 33.109375 17.90625 29.726562 17.90625 C 26.367188 17.90625 24.304688 15.699219 24.304688 12.0625 L 24.304688 0.574219 L 17.859375 0.574219 L 11.460938 16.097656 L 4.945312 0.574219 L 0.222656 0.574219 L 9.402344 21.503906 L 13.507812 21.503906 L 19.828125 6.726562 L 19.828125 12.667969 C 19.828125 18.285156 23.726562 22 29.683594 22.015625 L 29.769531 22.015625 C 32.128906 22.007812 34.152344 21.425781 35.742188 20.382812 C 37.34375 19.332031 38.503906 17.8125 39.117188 15.925781 C 40.941406 19.59375 44.835938 22 49.582031 22.015625 L 49.667969 22.015625 C 52.410156 22.007812 54.871094 21.195312 56.808594 19.804688 C 58.757812 18.410156 60.183594 16.421875 60.839844 14.074219 C 60.847656 18.683594 63.789062 21.503906 68.546875 21.503906 L 71.871094 21.503906 L 71.871094 17.597656 L 69.390625 17.597656 C 66.75 17.597656 65.3125 16.207031 65.3125 13.710938 L 65.3125 4.253906 L 71.753906 4.253906 L 71.753906 0.574219 L 59.738281 0.574219 L 57.53125 2.828125 C 55.484375 1.082031 52.734375 0.0546875 49.617188 0.0546875 Z M 49.625 0.0546875 " clip-rule="nonzero"/></clipPath><clipPath id="bcbbc9c3ff"><rect x="0" width="72" y="0" height="23"/></clipPath><clipPath id="30d115c59c"><path d="M 118.832031 0 L 123.378906 0 L 123.378906 6.058594 L 118.832031 6.058594 Z M 118.832031 0 " clip-rule="nonzero"/></clipPath><clipPath id="8149c94214"><path d="M 0.832031 0 L 5.378906 0 L 5.378906 6.058594 L 0.832031 6.058594 Z M 0.832031 0 " clip-rule="nonzero"/></clipPath><clipPath id="ecb34d5922"><rect x="0" width="6" y="0" height="7"/></clipPath></defs><g clip-path="url(#74bca9c3b3)"><g clip-path="url(#dbc17e1bf9)"><g transform="matrix(1, 0, 0, 1, 2, 9)"><g clip-path="url(#08032ddbf9)"><g clip-path="url(#fc2d7a6ea8)"><g clip-path="url(#344a61a26c)"><rect x="-31.04" width="190.08" fill="#ffffff" height="43.200001" y="-15.6" fill-opacity="1"/></g></g></g></g></g></g><g clip-path="url(#95392c29a4)"><g clip-path="url(#03971af2ba)"><g transform="matrix(1, 0, 0, 1, 2, 0.000000000000005692)"><g clip-path="url(#d8087f87ff)"><g clip-path="url(#4e3cddb8b9)"><g clip-path="url(#b3defc3b9b)"><rect x="-31.04" width="190.08" fill="#ffffff" height="43.200001" y="-6.6" fill-opacity="1"/></g></g></g></g></g></g><g clip-path="url(#6b80284dd2)"><g clip-path="url(#3fe6ef78bd)"><g transform="matrix(1, 0, 0, 1, 2, 16)"><g clip-path="url(#c91a780d49)"><g clip-path="url(#468ca6c49e)"><g clip-path="url(#27b16adac3)"><rect x="-31.04" width="190.08" fill="#ffffff" height="43.200001" y="-22.6" fill-opacity="1"/></g></g></g></g></g></g><g clip-path="url(#f5e3595bc5)"><g clip-path="url(#726b48d7c8)"><g transform="matrix(1, 0, 0, 1, 19, 0.000000000000005692)"><g clip-path="url(#f6d72dabaf)"><g clip-path="url(#1d61a457f3)"><g clip-path="url(#fc1ca69952)"><rect x="-48.04" width="190.08" fill="#ffffff" height="43.200001" y="-6.6" fill-opacity="1"/></g></g></g></g></g></g><g clip-path="url(#42de260f0b)"><g clip-path="url(#f372ca92f7)"><g transform="matrix(1, 0, 0, 1, 58, 7)"><g clip-path="url(#bcbbc9c3ff)"><g clip-path="url(#133d43655e)"><g clip-path="url(#0380bda8fa)"><rect x="-87.04" width="190.08" fill="#ffffff" height="43.200001" y="-13.6" fill-opacity="1"/></g></g></g></g></g></g><g clip-path="url(#30d115c59c)"><g transform="matrix(1, 0, 0, 1, 118, 0.000000000000005692)"><g clip-path="url(#ecb34d5922)"><g clip-path="url(#8149c94214)"><rect x="-147.04" width="190.08" fill="#ffffff" height="43.200001" y="-6.6" fill-opacity="1"/></g></g></g></g></svg>